# xmcd
#
# Track frame offsets: 
#        150
#        19028
#        33752
#        47217
#        56825
#        70014
#
# Disc length: 1198 seconds
#
# Revision: 0
# Processed by: cddbd v1.5.2PL0 Copyright (c) Steve Scherf et al.
# Submitted via: ExactAudioCopy v0.95b4
#
DISCID=4804ac06
DTITLE=The Four Legged Faithful - Human Being Feeling
DYEAR=2009
DGENRE=Bluegrass
TTITLE0=Hot Water
TTITLE1=Yukon Charlie
TTITLE2=Timescape
TTITLE3=Hard Times
TTITLE4=Common Ground
TTITLE5=Waiting
EXTD=
EXTT0=
EXTT1=
EXTT2=
EXTT3=
EXTT4=
EXTT5=
PLAYORDER=
